<svg width="110" height="110" viewBox="0 0 110 110" fill="none" xmlns="http://www.w3.org/2000/svg">
<circle cx="55.155" cy="54.845" r="54.845" fill="#B28ED4"/>
<g clip-path="url(#clip0_69_44)">
<path d="M82.6134 41.185L59.2462 23.2387C57.7157 22.0635 55.1439 22.0687 53.4634 23.245C51.7616 24.4335 51.5654 26.4037 53.0777 27.646L62.7957 35.5545H33.1244C30.6751 35.5555 28.3205 37.1956 27.856 39.2277C27.3756 41.2967 29.0382 42.9933 31.5848 43.0012H46.6017L19.6981 63.651C17.1698 65.5857 16.3538 68.8063 17.9462 70.8425C19.5611 72.9152 22.9988 72.9193 25.5533 70.8541L40.1805 58.884C40.1805 58.884 39.9659 60.4988 39.983 61.4687C40.4228 69.6566 46.6651 77.2469 54.3943 80.6086C67.7125 86.5075 85.6939 81.1074 90.7502 65.734C93.1548 57.6698 91.3114 48.0803 82.6133 41.1851M57.8421 69.7701C47.3234 64.2645 47.3233 50.4254 57.8421 44.9197C68.3609 39.4139 81.5807 46.3335 81.5807 57.3449C81.5807 68.3563 68.3609 75.2759 57.8421 69.7701ZM61.0455 64.8155C54.3361 61.3064 54.3361 52.486 61.0455 48.9769C67.7549 45.4679 76.187 49.878 76.187 56.8962C76.187 63.9144 67.7547 68.3247 61.0455 64.8155Z" fill="#090016"/>
<path d="M41.9927 40.2196V49.5433H46.6545C47.8909 49.5433 49.0766 49.0521 49.9509 48.1779C50.8252 47.3036 51.3163 46.1178 51.3163 44.8815C51.3163 43.6451 50.8252 42.4593 49.9509 41.5851C49.0766 40.7108 47.8909 40.2196 46.6545 40.2196H41.9927Z" fill="#090016"/>
<path d="M49.6066 47.9272C49.6536 48.8709 49.3684 49.8012 48.8006 50.5563C48.2328 51.3115 47.4183 51.8438 46.4987 52.0607C44.8763 52.5398 43.1843 52.7395 41.495 52.6512C41.0599 52.6512 41.0288 52.3715 41.0288 52.0607V44.1356C41.0288 43.918 41.2464 43.5451 41.3707 43.5451C43.1485 43.346 44.9475 43.4617 46.6852 43.887C47.5597 44.1266 48.326 44.6578 48.8573 45.3926C49.3886 46.1274 49.653 47.0216 49.6066 47.9272Z" fill="#090016"/>
</g>
<defs>
<clipPath id="clip0_69_44">
<rect width="74.5891" height="74.5891" fill="white" transform="translate(17.1294 15.3566)"/>
</clipPath>
</defs>
</svg>
