<svg width="110" height="110" viewBox="0 0 110 110" fill="none" xmlns="http://www.w3.org/2000/svg">
<circle cx="54.9485" cy="54.845" r="54.845" fill="#B28ED4"/>
<g clip-path="url(#clip0_69_36)">
<path d="M57.5271 30.8953L69.198 37.7105C69.6176 37.9497 69.6329 38.6135 69.198 38.8528L55.3303 46.9569C55.133 47.0744 54.9076 47.1364 54.678 47.1364C54.4484 47.1364 54.2231 47.0744 54.0258 46.9569L40.1581 38.8528C39.7309 38.6213 39.7234 37.942 40.1581 37.7105L51.8214 30.8953V17.5504L22.0415 34.9473V69.7413L33.4606 63.0727V49.4422C33.4531 48.9559 34.0176 48.6086 34.4371 48.871L48.3049 56.9752C48.5044 57.0918 48.67 57.2586 48.785 57.459C48.9001 57.6594 48.9608 57.8865 48.9609 58.1176V74.3181C48.9685 74.8044 48.404 75.1517 47.9844 74.8892L36.3135 68.0741L24.8944 74.7427L54.6743 92.1396L84.4541 74.7427L73.035 68.0741L61.3641 74.8892C60.9521 75.144 60.3725 74.8122 60.3876 74.3181V58.1176C60.3876 57.6313 60.6546 57.1991 61.0436 56.9752L74.9115 48.871C75.3234 48.6164 75.903 48.9405 75.8879 49.4422V63.0727L87.307 69.7413V34.9473L57.5271 17.5504V30.8953Z" fill="#090016"/>
</g>
<defs>
<clipPath id="clip0_69_36">
<rect width="65.2655" height="74.5891" fill="white" transform="translate(22.0415 17.5504)"/>
</clipPath>
</defs>
</svg>
