<svg width="110" height="110" viewBox="0 0 110 110" fill="none" xmlns="http://www.w3.org/2000/svg">
<circle cx="54.845" cy="54.845" r="54.845" fill="#B28ED4"/>
<path d="M79.7539 29.205H28.4738C27.2374 29.205 26.0517 29.6961 25.1774 30.5704C24.3032 31.4446 23.812 32.6304 23.812 33.8668V75.8232C23.812 77.0596 24.3032 78.2453 25.1774 79.1196C26.0517 79.9938 27.2374 80.485 28.4738 80.485H79.7539C80.9903 80.485 82.176 79.9938 83.0503 79.1196C83.9245 78.2453 84.4157 77.0596 84.4157 75.8232V33.8668C84.4157 32.6304 83.9245 31.4446 83.0503 30.5704C82.176 29.6961 80.9903 29.205 79.7539 29.205ZM43.8578 59.973C44.3524 60.3439 44.6794 60.8961 44.7668 61.5081C44.8542 62.12 44.6949 62.7417 44.324 63.2363C43.9531 63.7308 43.4009 64.0578 42.7889 64.1452C42.177 64.2326 41.5553 64.0734 41.0608 63.7024L31.7371 56.7097C31.4476 56.4926 31.2127 56.2111 31.0508 55.8874C30.889 55.5637 30.8047 55.2068 30.8047 54.845C30.8047 54.4831 30.889 54.1262 31.0508 53.8026C31.2127 53.4789 31.4476 53.1974 31.7371 52.9802L41.0608 45.9875C41.5553 45.6166 42.177 45.4573 42.7889 45.5448C43.4009 45.6322 43.9531 45.9591 44.324 46.4537C44.6949 46.9483 44.8542 47.5699 44.7668 48.1819C44.6794 48.7939 44.3524 49.3461 43.8578 49.717L37.0195 54.845L43.8578 59.973ZM61.0163 39.1696L51.6926 71.8024C51.6132 72.1019 51.4748 72.3826 51.2855 72.628C51.0963 72.8734 50.8601 73.0786 50.5906 73.2316C50.3211 73.3846 50.0238 73.4824 49.7161 73.5191C49.4084 73.5559 49.0965 73.5309 48.7985 73.4457C48.5006 73.3604 48.2226 73.2166 47.9809 73.0227C47.7392 72.8288 47.5386 72.5886 47.3908 72.3162C47.2431 72.0438 47.1511 71.7447 47.1203 71.4363C47.0895 71.128 47.1205 70.8166 47.2114 70.5204L56.5351 37.8876C56.7143 37.3041 57.1152 36.8142 57.6517 36.5231C58.1883 36.232 58.8176 36.163 59.4044 36.3309C59.9913 36.4988 60.4888 36.8902 60.7902 37.421C61.0916 37.9518 61.1728 38.5796 61.0163 39.1696ZM76.4906 56.7097L67.167 63.7024C66.6724 64.0734 66.0507 64.2326 65.4388 64.1452C64.8268 64.0578 64.2746 63.7308 63.9037 63.2363C63.5328 62.7417 63.3735 62.12 63.4609 61.5081C63.5483 60.8961 63.8753 60.3439 64.3699 59.973L71.2082 54.845L64.3699 49.717C64.125 49.5333 63.9187 49.3032 63.7627 49.0398C63.6068 48.7764 63.5042 48.4849 63.4609 48.1819C63.4176 47.8789 63.4345 47.5703 63.5104 47.2738C63.5864 46.9772 63.72 46.6986 63.9037 46.4537C64.0873 46.2088 64.3174 46.0025 64.5808 45.8466C64.8442 45.6906 65.1357 45.588 65.4388 45.5448C65.7418 45.5015 66.0504 45.5183 66.3469 45.5943C66.6434 45.6702 66.9221 45.8039 67.167 45.9875L76.4906 52.9802C76.7801 53.1974 77.015 53.4789 77.1769 53.8026C77.3387 54.1262 77.423 54.4831 77.423 54.845C77.423 55.2068 77.3387 55.5637 77.1769 55.8874C77.015 56.2111 76.7801 56.4926 76.4906 56.7097Z" fill="#090016"/>
</svg>
