<svg width="543" height="545" viewBox="0 0 543 545" fill="none" xmlns="http://www.w3.org/2000/svg">
<path d="M63.77 382.394C53.8951 378.134 47.0479 370.772 43.2283 360.308C39.4087 349.844 39.749 339.38 44.2491 328.916L142.575 100.988C147.082 90.5413 154.458 83.1195 164.702 78.7227C174.947 74.3259 185.003 74.2486 194.872 78.4907L302.598 124.963L322.118 178.441L465.753 240.404C475.628 244.664 482.478 252.035 486.304 262.517C490.13 272.999 489.787 283.454 485.274 293.883L403.335 483.823C398.829 494.269 391.456 501.7 381.218 506.115C370.98 510.529 360.92 510.598 351.039 506.32L63.77 382.394Z" fill="#7F60E5"/>
<path d="M119.2 426C108.695 426 99.7053 422.258 92.2308 414.774C84.7563 407.289 81.0127 398.281 81 387.75V158.25C81 147.731 84.7436 138.73 92.2308 131.245C99.718 123.761 108.708 120.013 119.2 120H233.8L272 158.25H424.8C435.305 158.25 444.301 161.998 451.788 169.495C459.275 176.992 463.013 185.994 463 196.5V387.75C463 398.269 459.263 407.277 451.788 414.774C444.314 422.271 435.318 426.013 424.8 426H119.2Z" fill="#9D7CBC"/>
<path d="M320.125 367L302.25 349.125L292.625 358.75L320.125 386.25L368.25 338.125L358.625 328.5L320.125 367ZM244.5 303.75H299.5V317.5H244.5V303.75ZM244.5 269.375H299.5V283.125H244.5V269.375ZM244.5 235H299.5V248.75H244.5V235Z" fill="#090016"/>
<path d="M272 372.5H203.25V345H217V331.25H203.25V296.875H217V283.125H203.25V248.75H217V235H203.25V207.5H327V317.5H340.75V207.5C340.75 199.938 334.562 193.75 327 193.75H203.25C195.688 193.75 189.5 199.938 189.5 207.5V235H175.75V248.75H189.5V283.125H175.75V296.875H189.5V331.25H175.75V345H189.5V372.5C189.5 380.062 195.688 386.25 203.25 386.25H272V372.5Z" fill="#090016"/>
</svg>
