<svg width="543" height="545" viewBox="0 0 543 545" fill="none" xmlns="http://www.w3.org/2000/svg">
<path d="M63.77 382.394C53.8951 378.134 47.0479 370.772 43.2283 360.308C39.4087 349.844 39.749 339.38 44.2491 328.916L142.575 100.988C147.082 90.5413 154.458 83.1195 164.702 78.7227C174.947 74.3259 185.003 74.2486 194.872 78.4907L302.598 124.963L322.118 178.441L465.753 240.404C475.628 244.664 482.478 252.035 486.304 262.517C490.13 272.999 489.787 283.454 485.274 293.883L403.335 483.823C398.829 494.269 391.456 501.7 381.218 506.115C370.98 510.529 360.92 510.598 351.039 506.32L63.77 382.394Z" fill="#7F60E5"/>
<path d="M119.2 426C108.695 426 99.7053 422.258 92.2308 414.774C84.7563 407.289 81.0127 398.281 81 387.75V158.25C81 147.731 84.7436 138.73 92.2308 131.245C99.718 123.761 108.708 120.013 119.2 120H233.8L272 158.25H424.8C435.305 158.25 444.301 161.998 451.788 169.495C459.275 176.992 463.013 185.994 463 196.5V387.75C463 398.269 459.263 407.277 451.788 414.774C444.314 422.271 435.318 426.013 424.8 426H119.2Z" fill="#9D7CBC"/>
<path d="M283.833 410.5L307.5 398.667L331.167 410.5V327.667H283.833M331.167 268.5V244.833L307.5 256.667L283.833 244.833V268.5L260.167 280.333L283.833 292.167V315.833L307.5 304L331.167 315.833V292.167L354.833 280.333M366.667 197.5H177.333C171.057 197.5 165.037 199.993 160.599 204.432C156.16 208.87 153.667 214.89 153.667 221.167V339.5C153.667 345.777 156.16 351.796 160.599 356.235C165.037 360.673 171.057 363.167 177.333 363.167H260.167V339.5H177.333V221.167H366.667V339.5H354.833V363.167H366.667C372.944 363.167 378.963 360.673 383.402 356.235C387.84 351.796 390.333 345.777 390.333 339.5V221.167C390.333 214.89 387.84 208.87 383.402 204.432C378.963 199.993 372.944 197.5 366.667 197.5ZM260.167 256.667H189.167V233H260.167M236.5 292.167H189.167V268.5H236.5M260.167 327.667H189.167V304H260.167V327.667Z" fill="#090016"/>
</svg>