<svg width="382" height="310" viewBox="0 0 382 310" fill="none" xmlns="http://www.w3.org/2000/svg">
<path d="M38.2 306C27.695 306 18.7053 302.258 11.2308 294.774C3.75633 287.289 0.0127333 278.281 0 267.75V38.25C0 27.7312 3.7436 18.7297 11.2308 11.2455C18.718 3.76125 27.7077 0.01275 38.2 0H152.8L191 38.25H343.8C354.305 38.25 363.301 41.9985 370.788 49.4955C378.275 56.9925 382.013 65.994 382 76.5V267.75C382 278.269 378.263 287.277 370.788 294.774C363.314 302.271 354.318 306.013 343.8 306H38.2Z" fill="#9D7CBC"/>
<path d="M307.142 107.795C314.536 115.189 320.172 123.575 324.049 132.953C327.926 142.33 329.91 152.294 330 162.844C330 166 329.91 169.787 329.729 174.205C329.549 178.623 329.188 183.402 328.647 188.542C328.106 193.682 327.25 198.957 326.078 204.367C324.905 209.777 323.418 215.142 321.614 220.462C318.909 228.216 315.753 234.528 312.146 239.397C308.54 244.267 304.798 248.099 300.92 250.894C297.043 253.689 293.121 255.583 289.153 256.575C285.186 257.567 281.489 258.062 278.062 258.062C275.087 258.062 272.382 257.567 269.947 256.575C267.513 255.583 265.168 254.23 262.914 252.517C260.66 250.804 258.586 248.955 256.692 246.972C254.799 244.988 252.86 242.824 250.876 240.479C248.983 238.315 247.134 236.242 245.331 234.258C243.528 232.274 241.589 230.516 239.515 228.983C237.441 227.45 235.367 226.143 233.293 225.061C231.22 223.979 228.785 223.438 225.99 223.438H157.01C154.395 223.528 152.006 224.069 149.842 225.061C147.678 226.052 145.559 227.315 143.485 228.848C141.411 230.381 139.517 232.184 137.804 234.258C136.091 236.332 134.197 238.406 132.124 240.479C130.23 242.644 128.336 244.763 126.443 246.836C124.549 248.91 122.475 250.804 120.221 252.517C117.967 254.23 115.623 255.538 113.188 256.439C110.753 257.341 108.003 257.882 104.938 258.062C101.511 258.062 97.8141 257.567 93.8467 256.575C89.8792 255.583 85.9569 253.734 82.0796 251.029C78.2023 248.324 74.4603 244.492 70.8535 239.533C67.2467 234.573 64.0908 228.216 61.3857 220.462C59.5824 215.232 58.1396 209.912 57.0576 204.502C55.9756 199.092 55.119 193.772 54.4878 188.542C53.8566 183.312 53.4508 178.533 53.2705 174.205C53.0902 169.877 53 166.09 53 162.844C53 152.384 54.9386 142.465 58.8159 133.088C62.6932 123.71 68.3739 115.279 75.8579 107.795C83.1616 100.402 91.5474 94.766 101.015 90.8887C110.483 87.0114 120.447 85.0277 130.906 84.9375H252.094C262.553 84.9375 272.472 86.8761 281.85 90.7534C291.227 94.6307 299.658 100.311 307.142 107.795ZM305.249 214.781C306.962 210.002 308.314 205.043 309.306 199.903C310.298 194.764 311.019 189.849 311.47 185.161C311.921 180.472 312.237 176.144 312.417 172.176C312.597 168.209 312.688 165.098 312.688 162.844C312.688 154.458 311.11 146.613 307.954 139.31C304.798 132.006 300.47 125.604 294.969 120.104C289.469 114.603 283.067 110.275 275.763 107.119C268.459 103.963 260.57 102.34 252.094 102.25H130.906C122.521 102.25 114.676 103.828 107.372 106.984C100.068 110.14 93.6663 114.468 88.166 119.968C82.6657 125.469 78.3376 131.871 75.1816 139.174C72.0257 146.478 70.4027 154.368 70.3125 162.844C70.3125 165.188 70.3576 168.299 70.4478 172.176C70.5379 176.054 70.8535 180.337 71.3945 185.025C71.9355 189.714 72.702 194.674 73.6938 199.903C74.6857 205.133 76.0382 210.092 77.7515 214.781C80.0057 221.273 82.4854 226.278 85.1904 229.794C87.8955 233.311 90.5104 235.881 93.0352 237.504C95.5599 239.127 97.9043 240.074 100.068 240.344C102.232 240.615 103.855 240.75 104.938 240.75C106.921 240.75 109.085 239.578 111.43 237.233C113.774 234.889 116.299 232.184 119.004 229.118C121.168 226.593 123.467 224.024 125.902 221.409C128.336 218.794 131.087 216.359 134.152 214.105C137.218 211.851 140.599 210.002 144.296 208.56C147.993 207.117 152.096 206.305 156.604 206.125H226.396C230.904 206.305 235.007 207.117 238.704 208.56C242.401 210.002 245.737 211.806 248.712 213.97C251.688 216.134 254.438 218.568 256.963 221.273C259.488 223.979 261.832 226.593 263.996 229.118C266.611 232.094 269.091 234.754 271.435 237.098C273.779 239.443 275.989 240.66 278.062 240.75C279.145 240.75 280.722 240.615 282.796 240.344C284.87 240.074 287.215 239.127 289.83 237.504C292.445 235.881 295.104 233.311 297.81 229.794C300.515 226.278 302.994 221.273 305.249 214.781ZM122.25 154.188H139.562V171.5H122.25V188.812H104.938V171.5H87.625V154.188H104.938V136.875H122.25V154.188ZM278.062 171.5C280.497 171.5 282.751 171.951 284.825 172.853C286.899 173.754 288.702 174.972 290.235 176.504C291.768 178.037 293.031 179.886 294.022 182.05C295.014 184.214 295.465 186.468 295.375 188.812C295.375 191.247 294.924 193.501 294.022 195.575C293.121 197.649 291.903 199.452 290.371 200.985C288.838 202.518 286.989 203.781 284.825 204.772C282.661 205.764 280.407 206.215 278.062 206.125C275.628 206.125 273.374 205.674 271.3 204.772C269.226 203.871 267.423 202.653 265.89 201.121C264.357 199.588 263.094 197.739 262.103 195.575C261.111 193.411 260.66 191.157 260.75 188.812C260.75 186.378 261.201 184.124 262.103 182.05C263.004 179.976 264.222 178.173 265.754 176.64C267.287 175.107 269.136 173.844 271.3 172.853C273.464 171.861 275.718 171.41 278.062 171.5ZM243.438 136.875C245.872 136.875 248.126 137.326 250.2 138.228C252.274 139.129 254.077 140.347 255.61 141.879C257.143 143.412 258.406 145.261 259.397 147.425C260.389 149.589 260.84 151.843 260.75 154.188C260.75 156.622 260.299 158.876 259.397 160.95C258.496 163.024 257.278 164.827 255.746 166.36C254.213 167.893 252.364 169.156 250.2 170.147C248.036 171.139 245.782 171.59 243.438 171.5C241.003 171.5 238.749 171.049 236.675 170.147C234.601 169.246 232.798 168.028 231.265 166.496C229.732 164.963 228.469 163.114 227.478 160.95C226.486 158.786 226.035 156.532 226.125 154.188C226.125 151.753 226.576 149.499 227.478 147.425C228.379 145.351 229.597 143.548 231.129 142.015C232.662 140.482 234.511 139.219 236.675 138.228C238.839 137.236 241.093 136.785 243.438 136.875Z" fill="#0F051E"/>
</svg>