<svg width="449" height="435" viewBox="0 0 449 435" fill="none" xmlns="http://www.w3.org/2000/svg">
<path d="M23.7698 307.394C13.8949 303.134 7.04767 295.772 3.22809 285.308C-0.591496 274.844 -0.251232 264.38 4.24888 253.916L102.575 25.9879C107.082 15.5413 114.457 8.11952 124.702 3.72272C134.947 -0.674077 145.003 -0.751414 154.871 3.4907L262.597 49.9628L282.118 103.441L425.753 165.404C435.627 169.664 442.478 177.035 446.304 187.517C450.13 197.999 449.787 208.454 445.273 218.883L363.335 408.823C358.828 419.269 351.456 426.7 341.218 431.115C330.98 435.529 320.92 435.598 311.039 431.32L23.7698 307.394Z" fill="#7F60E5"/>
</svg>