<svg width="545" height="545" viewBox="0 0 545 545" fill="none" xmlns="http://www.w3.org/2000/svg">
<path d="M63.7698 382.394C53.8949 378.134 47.0477 370.772 43.2281 360.308C39.4085 349.844 39.7488 339.38 44.2489 328.916L142.575 100.988C147.082 90.5413 154.457 83.1195 164.702 78.7227C174.947 74.3259 185.003 74.2486 194.871 78.4907L302.597 124.963L322.118 178.441L465.753 240.404C475.627 244.664 482.478 252.035 486.304 262.517C490.13 272.999 489.787 283.454 485.273 293.883L403.335 483.823C398.828 494.269 391.456 501.7 381.218 506.115C370.98 510.529 360.92 510.598 351.039 506.32L63.7698 382.394Z" fill="#7F60E5"/>
<path d="M119.2 426C108.695 426 99.7053 422.258 92.2308 414.774C84.7563 407.289 81.0127 398.281 81 387.75V158.25C81 147.731 84.7436 138.73 92.2308 131.245C99.718 123.761 108.708 120.013 119.2 120H233.8L272 158.25H424.8C435.305 158.25 444.301 161.998 451.788 169.495C459.275 176.992 463.013 185.994 463 196.5V387.75C463 398.269 459.263 407.277 451.788 414.774C444.314 422.271 435.318 426.013 424.8 426H119.2Z" fill="#9D7CBC"/>
<path d="M388.142 227.795C395.536 235.189 401.172 243.575 405.049 252.953C408.926 262.33 410.91 272.294 411 282.844C411 286 410.91 289.787 410.729 294.205C410.549 298.623 410.188 303.402 409.647 308.542C409.106 313.682 408.25 318.957 407.078 324.367C405.905 329.777 404.418 335.142 402.614 340.462C399.909 348.216 396.753 354.528 393.146 359.397C389.54 364.267 385.798 368.099 381.92 370.894C378.043 373.689 374.121 375.583 370.153 376.575C366.186 377.567 362.489 378.062 359.062 378.062C356.087 378.062 353.382 377.567 350.947 376.575C348.513 375.583 346.168 374.23 343.914 372.517C341.66 370.804 339.586 368.955 337.692 366.972C335.799 364.988 333.86 362.824 331.876 360.479C329.983 358.315 328.134 356.242 326.331 354.258C324.528 352.274 322.589 350.516 320.515 348.983C318.441 347.45 316.367 346.143 314.293 345.061C312.22 343.979 309.785 343.438 306.99 343.438H238.01C235.395 343.528 233.006 344.069 230.842 345.061C228.678 346.052 226.559 347.315 224.485 348.848C222.411 350.381 220.517 352.184 218.804 354.258C217.091 356.332 215.197 358.406 213.124 360.479C211.23 362.644 209.336 364.763 207.443 366.836C205.549 368.91 203.475 370.804 201.221 372.517C198.967 374.23 196.623 375.538 194.188 376.439C191.753 377.341 189.003 377.882 185.938 378.062C182.511 378.062 178.814 377.567 174.847 376.575C170.879 375.583 166.957 373.734 163.08 371.029C159.202 368.324 155.46 364.492 151.854 359.533C148.247 354.573 145.091 348.216 142.386 340.462C140.582 335.232 139.14 329.912 138.058 324.502C136.976 319.092 136.119 313.772 135.488 308.542C134.857 303.312 134.451 298.533 134.271 294.205C134.09 289.877 134 286.09 134 282.844C134 272.384 135.939 262.465 139.816 253.088C143.693 243.71 149.374 235.279 156.858 227.795C164.162 220.402 172.547 214.766 182.015 210.889C191.483 207.011 201.447 205.028 211.906 204.938H333.094C343.553 204.938 353.472 206.876 362.85 210.753C372.227 214.631 380.658 220.311 388.142 227.795ZM386.249 334.781C387.962 330.002 389.314 325.043 390.306 319.903C391.298 314.764 392.019 309.849 392.47 305.161C392.921 300.472 393.237 296.144 393.417 292.176C393.597 288.209 393.688 285.098 393.688 282.844C393.688 274.458 392.11 266.613 388.954 259.31C385.798 252.006 381.47 245.604 375.969 240.104C370.469 234.603 364.067 230.275 356.763 227.119C349.459 223.963 341.57 222.34 333.094 222.25H211.906C203.521 222.25 195.676 223.828 188.372 226.984C181.068 230.14 174.666 234.468 169.166 239.968C163.666 245.469 159.338 251.871 156.182 259.174C153.026 266.478 151.403 274.368 151.312 282.844C151.312 285.188 151.358 288.299 151.448 292.176C151.538 296.054 151.854 300.337 152.395 305.025C152.936 309.714 153.702 314.674 154.694 319.903C155.686 325.133 157.038 330.092 158.751 334.781C161.006 341.273 163.485 346.278 166.19 349.794C168.896 353.311 171.51 355.881 174.035 357.504C176.56 359.127 178.904 360.074 181.068 360.344C183.232 360.615 184.855 360.75 185.938 360.75C187.921 360.75 190.085 359.578 192.43 357.233C194.774 354.889 197.299 352.184 200.004 349.118C202.168 346.593 204.467 344.024 206.902 341.409C209.336 338.794 212.087 336.359 215.152 334.105C218.218 331.851 221.599 330.002 225.296 328.56C228.993 327.117 233.096 326.305 237.604 326.125H307.396C311.904 326.305 316.007 327.117 319.704 328.56C323.401 330.002 326.737 331.806 329.712 333.97C332.688 336.134 335.438 338.568 337.963 341.273C340.488 343.979 342.832 346.593 344.996 349.118C347.611 352.094 350.091 354.754 352.435 357.098C354.779 359.443 356.989 360.66 359.062 360.75C360.145 360.75 361.722 360.615 363.796 360.344C365.87 360.074 368.215 359.127 370.83 357.504C373.445 355.881 376.104 353.311 378.81 349.794C381.515 346.278 383.994 341.273 386.249 334.781ZM203.25 274.188H220.562V291.5H203.25V308.812H185.938V291.5H168.625V274.188H185.938V256.875H203.25V274.188ZM359.062 291.5C361.497 291.5 363.751 291.951 365.825 292.853C367.899 293.754 369.702 294.972 371.235 296.504C372.768 298.037 374.031 299.886 375.022 302.05C376.014 304.214 376.465 306.468 376.375 308.812C376.375 311.247 375.924 313.501 375.022 315.575C374.121 317.649 372.903 319.452 371.371 320.985C369.838 322.518 367.989 323.781 365.825 324.772C363.661 325.764 361.407 326.215 359.062 326.125C356.628 326.125 354.374 325.674 352.3 324.772C350.226 323.871 348.423 322.653 346.89 321.121C345.357 319.588 344.094 317.739 343.103 315.575C342.111 313.411 341.66 311.157 341.75 308.812C341.75 306.378 342.201 304.124 343.103 302.05C344.004 299.976 345.222 298.173 346.754 296.64C348.287 295.107 350.136 293.844 352.3 292.853C354.464 291.861 356.718 291.41 359.062 291.5ZM324.438 256.875C326.872 256.875 329.126 257.326 331.2 258.228C333.274 259.129 335.077 260.347 336.61 261.879C338.143 263.412 339.406 265.261 340.397 267.425C341.389 269.589 341.84 271.843 341.75 274.188C341.75 276.622 341.299 278.876 340.397 280.95C339.496 283.024 338.278 284.827 336.746 286.36C335.213 287.893 333.364 289.156 331.2 290.147C329.036 291.139 326.782 291.59 324.438 291.5C322.003 291.5 319.749 291.049 317.675 290.147C315.601 289.246 313.798 288.028 312.265 286.496C310.732 284.963 309.469 283.114 308.478 280.95C307.486 278.786 307.035 276.532 307.125 274.188C307.125 271.753 307.576 269.499 308.478 267.425C309.379 265.351 310.597 263.548 312.129 262.015C313.662 260.482 315.511 259.219 317.675 258.228C319.839 257.236 322.093 256.785 324.438 256.875Z" fill="#0F051E"/>
</svg>
