<svg width="64" height="64" viewBox="0 0 64 64" fill="none" xmlns="http://www.w3.org/2000/svg">
<path d="M32.003 5.99951C46.3628 5.99951 58.003 17.6397 58.003 31.9995C58.003 46.3593 46.3628 57.9995 32.003 57.9995C27.4081 58.0074 22.8941 56.7914 18.925 54.4765L6.01337 57.9995L9.52857 45.0827C7.21186 41.1123 5.99492 36.5964 6.00297 31.9995C6.00297 17.6397 17.6432 5.99951 32.003 5.99951ZM23.1422 19.7795L22.6222 19.8003C22.286 19.8235 21.9575 19.9118 21.655 20.0603C21.3731 20.2202 21.1156 20.4199 20.8906 20.6531C20.5786 20.9469 20.4018 21.2017 20.212 21.4487C19.2503 22.6991 18.7325 24.2341 18.7404 25.8115C18.7456 27.0855 19.0784 28.3257 19.5984 29.4853C20.6618 31.8305 22.4116 34.3135 24.7204 36.6145C25.2768 37.1683 25.8228 37.7247 26.4104 38.2421C29.2793 40.7678 32.6979 42.5892 36.3944 43.5617L37.8712 43.7879C38.3522 43.8139 38.8332 43.7775 39.3168 43.7541C40.0739 43.7142 40.813 43.5092 41.4826 43.1535C41.8228 42.9776 42.155 42.7868 42.4784 42.5815C42.4784 42.5815 42.5884 42.507 42.8034 42.3475C43.1544 42.0875 43.3702 41.9029 43.6614 41.5987C43.8798 41.3734 44.0618 41.1116 44.2074 40.8135C44.4102 40.3897 44.613 39.5811 44.6962 38.9077C44.7586 38.3929 44.7404 38.1121 44.7326 37.9379C44.7222 37.6597 44.4908 37.3711 44.2386 37.2489L42.7254 36.5703C42.7254 36.5703 40.4634 35.5849 39.0802 34.9557C38.9354 34.8927 38.7803 34.8566 38.6226 34.8491C38.4447 34.8305 38.2648 34.8504 38.0953 34.9073C37.9257 34.9643 37.7704 35.0571 37.6398 35.1793C37.6268 35.1741 37.4526 35.3223 35.5728 37.5999C35.4649 37.7449 35.3163 37.8545 35.1459 37.9147C34.9755 37.9749 34.791 37.9829 34.616 37.9379C34.4465 37.8927 34.2806 37.8354 34.1194 37.7663C33.797 37.6311 33.6852 37.5791 33.4642 37.4855C31.9714 36.8353 30.5897 35.9554 29.3692 34.8777C29.0416 34.5917 28.7374 34.2797 28.4254 33.9781C27.4026 32.9984 26.5111 31.8903 25.7734 30.6813L25.62 30.4343C25.5115 30.2674 25.4225 30.0885 25.3548 29.9013C25.256 29.5191 25.5134 29.2123 25.5134 29.2123C25.5134 29.2123 26.1452 28.5207 26.439 28.1463C26.725 27.7823 26.9668 27.4287 27.1228 27.1765C27.4296 26.6825 27.5258 26.1755 27.3646 25.7829C26.6366 24.0045 25.8843 22.2356 25.1078 20.4763C24.9544 20.1279 24.4994 19.8783 24.086 19.8289C23.9456 19.8116 23.8052 19.7977 23.6648 19.7873C23.3157 19.7673 22.9656 19.7708 22.617 19.7977L23.1422 19.7795Z" fill="#B28ED4"/>
</svg>
