<svg width="63" height="64" viewBox="0 0 63 64" fill="none" xmlns="http://www.w3.org/2000/svg">
<path d="M50.102 14.6575C46.644 13.0455 42.9 11.8755 39 11.1995C38.9314 11.2004 38.866 11.2285 38.818 11.2775C38.35 12.1355 37.804 13.2535 37.44 14.1115C33.3034 13.4879 29.0966 13.4879 24.96 14.1115C24.596 13.2275 24.05 12.1355 23.556 11.2775C23.53 11.2255 23.452 11.1995 23.374 11.1995C19.474 11.8755 15.756 13.0455 12.272 14.6575C12.246 14.6575 12.22 14.6835 12.194 14.7095C5.12201 25.2915 3.17201 35.5875 4.13401 45.7795C4.13401 45.8315 4.16001 45.8835 4.21201 45.9095C8.89201 49.3415 13.39 51.4215 17.836 52.7995C17.914 52.8255 17.992 52.7995 18.018 52.7475C19.058 51.3175 19.994 49.8095 20.8 48.2235C20.852 48.1195 20.8 48.0155 20.696 47.9895C19.214 47.4175 17.81 46.7415 16.432 45.9615C16.328 45.9095 16.328 45.7535 16.406 45.6755C16.692 45.4675 16.978 45.2335 17.264 45.0255C17.316 44.9735 17.394 44.9735 17.446 44.9995C26.39 49.0815 36.036 49.0815 44.876 44.9995C44.928 44.9735 45.006 44.9735 45.058 45.0255C45.344 45.2595 45.63 45.4675 45.916 45.7015C46.02 45.7795 46.02 45.9355 45.89 45.9875C44.538 46.7935 43.108 47.4435 41.626 48.0155C41.522 48.0415 41.496 48.1715 41.522 48.2495C42.354 49.8355 43.29 51.3435 44.304 52.7735C44.382 52.7995 44.46 52.8255 44.538 52.7995C49.01 51.4215 53.508 49.3415 58.188 45.9095C58.24 45.8835 58.266 45.8315 58.266 45.7795C59.41 34.0015 56.368 23.7835 50.206 14.7095C50.18 14.6835 50.154 14.6575 50.102 14.6575ZM22.152 39.5655C19.474 39.5655 17.238 37.0955 17.238 34.0535C17.238 31.0115 19.422 28.5415 22.152 28.5415C24.908 28.5415 27.092 31.0375 27.066 34.0535C27.066 37.0955 24.882 39.5655 22.152 39.5655ZM40.274 39.5655C37.596 39.5655 35.36 37.0955 35.36 34.0535C35.36 31.0115 37.544 28.5415 40.274 28.5415C43.03 28.5415 45.214 31.0375 45.188 34.0535C45.188 37.0955 43.03 39.5655 40.274 39.5655Z" fill="#B28ED4"/>
</svg>
