<svg width="64" height="64" viewBox="0 0 64 64" fill="none" xmlns="http://www.w3.org/2000/svg">
<path d="M21.0805 5.99951H42.9205C51.2405 5.99951 58.0005 12.7595 58.0005 21.0795V42.9195C58.0005 46.919 56.4117 50.7546 53.5837 53.5827C50.7556 56.4107 46.92 57.9995 42.9205 57.9995H21.0805C12.7605 57.9995 6.00049 51.2395 6.00049 42.9195V21.0795C6.00049 17.08 7.58927 13.2444 10.4173 10.4163C13.2454 7.58829 17.081 5.99951 21.0805 5.99951ZM20.5605 11.1995C18.0781 11.1995 15.6973 12.1857 13.942 13.941C12.1866 15.6963 11.2005 18.0771 11.2005 20.5595V43.4395C11.2005 48.6135 15.3865 52.7995 20.5605 52.7995H43.4405C45.9229 52.7995 48.3037 51.8134 50.059 50.058C51.8144 48.3027 52.8005 45.9219 52.8005 43.4395V20.5595C52.8005 15.3855 48.6145 11.1995 43.4405 11.1995H20.5605ZM45.6505 15.0995C46.5124 15.0995 47.3391 15.4419 47.9486 16.0514C48.5581 16.6609 48.9005 17.4876 48.9005 18.3495C48.9005 19.2115 48.5581 20.0381 47.9486 20.6476C47.3391 21.2571 46.5124 21.5995 45.6505 21.5995C44.7885 21.5995 43.9619 21.2571 43.3524 20.6476C42.7429 20.0381 42.4005 19.2115 42.4005 18.3495C42.4005 17.4876 42.7429 16.6609 43.3524 16.0514C43.9619 15.4419 44.7885 15.0995 45.6505 15.0995ZM32.0005 18.9995C35.4483 18.9995 38.7549 20.3692 41.1929 22.8071C43.6308 25.2451 45.0005 28.5517 45.0005 31.9995C45.0005 35.4473 43.6308 38.7539 41.1929 41.1919C38.7549 43.6299 35.4483 44.9995 32.0005 44.9995C28.5527 44.9995 25.2461 43.6299 22.8081 41.1919C20.3701 38.7539 19.0005 35.4473 19.0005 31.9995C19.0005 28.5517 20.3701 25.2451 22.8081 22.8071C25.2461 20.3692 28.5527 18.9995 32.0005 18.9995ZM32.0005 24.1995C29.9318 24.1995 27.9478 25.0213 26.4851 26.4841C25.0223 27.9469 24.2005 29.9308 24.2005 31.9995C24.2005 34.0682 25.0223 36.0522 26.4851 37.5149C27.9478 38.9777 29.9318 39.7995 32.0005 39.7995C34.0692 39.7995 36.0531 38.9777 37.5159 37.5149C38.9787 36.0522 39.8005 34.0682 39.8005 31.9995C39.8005 29.9308 38.9787 27.9469 37.5159 26.4841C36.0531 25.0213 34.0692 24.1995 32.0005 24.1995Z" fill="#B28ED4"/>
</svg>
