<svg width="110" height="110" viewBox="0 0 110 110" fill="none" xmlns="http://www.w3.org/2000/svg">
<circle cx="55.0515" cy="54.845" r="54.845" fill="#B28ED4"/>
<g clip-path="url(#clip0_69_40)">
<path d="M48.2569 54.8754C40.551 57.028 52.9444 61.4748 62.7552 57.2716C61.1486 56.6475 59.996 55.9261 59.996 55.9261C55.6209 56.753 53.5918 56.8182 49.6205 56.3649C46.3427 55.9896 48.2569 54.8754 48.2569 54.8754ZM61.5804 50.6757C55.7823 51.7916 52.4328 51.7561 48.1899 51.3185C44.9098 50.9793 47.0571 49.389 47.0571 49.389C38.5708 52.206 51.7807 55.4016 63.641 51.9327C62.3811 51.4892 61.5804 50.6757 61.5804 50.6757ZM66.1251 26.3579C66.1251 26.3579 48.9702 30.6415 57.1628 40.0823C59.5817 42.8666 56.5288 45.37 56.5288 45.37C56.5288 45.37 62.6666 42.2017 59.848 38.2327C57.2152 34.533 55.1967 32.6956 66.1251 26.3579ZM38.8663 62.7353C58.8678 65.977 75.3258 61.2749 70.139 58.9341C70.139 58.9341 71.5556 60.1025 68.5778 61.0057C62.9166 62.7207 45.01 63.2382 40.0364 61.0739C38.2498 60.296 41.6022 59.2168 42.6564 58.9901C43.756 58.7517 44.3841 58.7954 44.3841 58.7954C42.3959 57.3946 31.5321 61.5448 38.8663 62.7353ZM63.2639 46.7569C64.2254 46.1007 65.5541 45.5308 65.5541 45.5308C65.5541 45.5308 61.771 46.2074 58.0013 46.5238C53.3873 46.9107 48.4376 46.987 45.9528 46.6549C40.0702 45.8682 49.1777 43.7045 49.1777 43.7045C49.1777 43.7045 45.6405 43.465 41.2916 45.5687C36.1479 48.0564 54.0137 49.1898 63.2639 46.7569ZM65.5162 52.8359C65.4731 52.9524 65.3285 53.0835 65.3285 53.0835C77.884 49.783 73.2676 41.4494 67.2644 43.5589C66.7382 43.7447 66.4614 44.1783 66.4614 44.1783C66.4614 44.1783 66.7941 44.0443 67.5365 43.8893C70.5708 43.2576 74.9191 47.952 65.5162 52.8359ZM54.9065 43.6142C53.054 39.4267 46.7733 35.7643 54.9094 29.3386C65.0547 21.3307 59.8486 16.1211 59.8486 16.1211C61.9487 24.3941 52.4415 26.8934 49.0098 32.0459C46.6731 35.5563 50.1572 39.3294 54.9065 43.6142ZM65.8559 64.389C58.1528 65.8389 48.6515 65.6705 43.0182 64.7404C43.0182 64.7404 44.172 65.6961 50.1024 66.0772C59.1254 66.6541 72.9856 65.7561 73.3137 61.4865C73.3137 61.4859 72.6831 63.1041 65.8559 64.389ZM46.8211 73.3584C45.1388 73.3584 43.7029 73.7745 42.5043 74.3036L42.8679 75.7563C43.8113 75.4096 44.9762 75.0879 46.1743 75.0879C47.8351 75.0879 48.493 75.7563 48.493 77.1397V78.2912H47.7937C43.7606 78.2912 41.9408 79.7975 41.9408 82.1512C41.9408 84.1785 43.1406 85.302 45.3981 85.302C46.8491 85.302 47.9335 84.8096 48.9457 83.9326L49.1299 85.2839H50.8239V76.839C50.8239 74.7418 49.7027 73.3584 46.8211 73.3584ZM48.493 82.3918C47.9102 83.1296 46.8071 83.5445 45.9995 83.5445C44.8497 83.5445 44.2583 82.7456 44.2583 81.639C44.2583 80.4409 44.9587 79.4566 47.6346 79.4566H48.493V82.3918ZM57.5899 82.7671L57.1033 80.6646L54.9146 73.6294H52.3564L55.8825 85.2839H58.8113C60.4919 81.2048 61.6917 77.1257 62.3578 73.6294H59.869C59.478 76.543 58.6942 79.7037 57.5899 82.7671ZM68.3144 73.3584C66.6309 73.3584 65.1613 73.7745 63.9632 74.3036L64.3105 75.7563C65.2551 75.4096 66.4794 75.0879 67.6775 75.0879C69.336 75.0879 70.0539 75.7563 70.0539 77.1397V78.2912H69.2217C65.1875 78.2912 63.3682 79.7975 63.3682 82.1512C63.3682 84.1785 64.5663 85.302 66.8238 85.302C68.276 85.302 69.3581 84.8096 70.3732 83.9326L70.5585 85.2839H72.3848V76.839C72.3848 74.7418 71.1937 73.3584 68.3144 73.3584ZM67.4922 83.534C66.3413 83.534 65.7172 82.7397 65.7172 81.6337C65.7172 80.4362 66.3868 79.4566 69.0597 79.4566H70.0539V82.3703H70.0148C69.1611 82.953 68.2975 83.534 67.4922 83.534ZM38.0039 82.5876C38.0039 84.4937 37.7445 85.2903 37.4334 85.9098C37.075 86.605 36.237 87.352 35.335 87.8147L36.462 89.1812C37.6461 88.7447 38.7597 87.9703 39.4292 86.9919C40.0993 85.9878 40.3348 84.9576 40.3348 82.4076V69.5503H38.0039V82.5876Z" fill="#090016"/>
</g>
<defs>
<clipPath id="clip0_69_40">
<rect width="74.5891" height="74.5891" fill="white" transform="translate(17.0259 15.3566)"/>
</clipPath>
</defs>
</svg>
